<?xml version="1.0" encoding="utf-8"?>
<!-- Generator: Adobe Illustrator 25.2.3, SVG Export Plug-In . SVG Version: 6.00 Build 0)  -->
<svg version="1.1" id="Capa_1" xmlns="http://www.w3.org/2000/svg" xmlns:xlink="http://www.w3.org/1999/xlink" x="0px" y="0px"
	 viewBox="0 0 200 50" style="enable-background:new 0 0 200 50;" xml:space="preserve">
<style type="text/css">
	.st0{fill:url(#SVGID_1_);}
	.st1{fill:url(#SVGID_2_);}
	.st2{fill:url(#SVGID_3_);}
	.st3{fill:url(#SVGID_4_);}
	.st4{fill:url(#SVGID_5_);}
	.st5{fill:url(#SVGID_6_);}
	.st6{fill:url(#SVGID_7_);}
	.st7{fill:url(#SVGID_8_);}
	.st8{fill:url(#SVGID_9_);}
	.st9{fill:url(#SVGID_10_);}
	.st10{fill:url(#SVGID_11_);}
	.st11{fill:url(#SVGID_12_);}
	.st12{fill:url(#SVGID_13_);}
	.st13{fill:url(#SVGID_14_);}
	.st14{fill:url(#SVGID_15_);}
	.st15{fill:url(#SVGID_16_);}
	.st16{fill:url(#SVGID_17_);}
	.st17{fill:url(#SVGID_18_);}
	.st18{fill:url(#SVGID_19_);}
	.st19{fill:url(#SVGID_20_);}
	.st20{fill:url(#SVGID_21_);}
	.st21{fill:url(#SVGID_22_);}
	.st22{fill:url(#SVGID_23_);}
	.st23{fill:url(#SVGID_24_);}
	.st24{fill:url(#SVGID_25_);}
	.st25{fill:url(#SVGID_26_);}
	.st26{fill:url(#SVGID_27_);}
	.st27{fill:url(#SVGID_28_);}
	.st28{fill:url(#SVGID_29_);}
	.st29{fill:url(#SVGID_30_);}
	.st30{fill:url(#SVGID_31_);}
	.st31{fill:url(#SVGID_32_);}
</style>
<g>
	<g>
		<g>
			<path d="M59.29,40.69V24.98h2.02v6.85h8.42v-6.85h2.02v15.72h-2.02v-6.96h-8.42v6.96H59.29z"/>
			<path d="M76.01,39.25c-1.05-1.11-1.57-2.5-1.57-4.16c0-1.66,0.52-3.05,1.57-4.16c1.05-1.11,2.32-1.67,3.82-1.67
				c0.94,0,1.74,0.18,2.39,0.54c0.65,0.36,1.13,0.75,1.43,1.17l0.2,0.34h0.02v-1.82h1.8v11.23h-1.8v-1.8h-0.02l-0.2,0.31
				c-0.27,0.4-0.73,0.79-1.39,1.16c-0.66,0.37-1.47,0.55-2.42,0.55C78.33,40.92,77.06,40.36,76.01,39.25z M77.33,32.1
				c-0.73,0.78-1.09,1.77-1.09,2.99c0,1.21,0.36,2.21,1.09,2.99c0.73,0.78,1.63,1.17,2.73,1.17c1.09,0,2-0.39,2.73-1.17
				c0.73-0.78,1.09-1.77,1.09-2.99c0-1.21-0.36-2.21-1.09-2.99c-0.73-0.78-1.64-1.17-2.73-1.17C78.96,30.93,78.05,31.32,77.33,32.1z
				"/>
			<path d="M87.8,31.15v-1.68h1.46V27h1.8v2.47h2.47v1.68h-2.47v7.86h3.99v1.68h-5.78v-9.54H87.8z"/>
			<path d="M97,36.09v-6.62h1.8v6.51c0,1.08,0.27,1.89,0.81,2.44c0.54,0.55,1.28,0.82,2.22,0.82c1.03,0,1.87-0.34,2.51-1.02
				c0.64-0.68,0.97-1.58,0.97-2.68v-6.06h1.8v11.23h-1.8v-1.68h-0.02c-0.24,0.37-0.54,0.7-0.9,0.97c-0.81,0.63-1.77,0.94-2.9,0.94
				c-1.36,0-2.45-0.43-3.27-1.29C97.41,38.77,97,37.59,97,36.09z"/>
			<path d="M110.25,40.69V29.47h1.8v1.68h0.02c0.22-0.36,0.52-0.67,0.88-0.94c0.82-0.64,1.8-0.97,2.92-0.97
				c1.36,0,2.45,0.43,3.27,1.29c0.82,0.86,1.22,2.04,1.22,3.54v6.62h-1.8v-6.51c0-1.08-0.27-1.89-0.81-2.44
				c-0.54-0.55-1.28-0.82-2.22-0.82c-1.03,0-1.87,0.34-2.51,1.02c-0.64,0.68-0.97,1.58-0.97,2.68v6.06H110.25z"/>
			<path d="M127.87,40.69l4.04-15.72h6.17l4.04,15.72h-2.02l-1.23-4.6h-7.75l-1.23,4.6H127.87z M131.58,34.18h6.85l-1.91-7.3h-3.03
				L131.58,34.18z"/>
			<path d="M142.86,29.47h1.91l2.02,9.54h0.56l1.91-9.54h3.26l1.91,9.54h0.56l2.02-9.54h1.91l-2.47,11.23h-3.48l-1.91-9.54h-0.34
				l-1.91,9.54h-3.48L142.86,29.47z"/>
			<path d="M161.89,39.25c-1.05-1.11-1.57-2.5-1.57-4.16c0-1.66,0.52-3.05,1.57-4.16c1.05-1.11,2.32-1.67,3.82-1.67
				c0.94,0,1.74,0.18,2.4,0.54c0.66,0.36,1.13,0.74,1.41,1.14l0.2,0.34h0.02v-1.8h1.8v15.7h-1.8V38.9h-0.02l-0.2,0.31
				c-0.27,0.4-0.73,0.79-1.39,1.16c-0.66,0.37-1.47,0.55-2.42,0.55C164.21,40.92,162.93,40.36,161.89,39.25z M163.2,32.1
				c-0.73,0.78-1.09,1.77-1.09,2.99c0,1.21,0.36,2.21,1.09,2.99c0.73,0.78,1.63,1.17,2.73,1.17c1.09,0,2-0.39,2.73-1.17
				c0.73-0.78,1.09-1.77,1.09-2.99c0-1.21-0.36-2.21-1.09-2.99c-0.73-0.78-1.64-1.17-2.73-1.17
				C164.83,30.93,163.92,31.32,163.2,32.1z"/>
			<path d="M175.58,39.25c-1.05-1.11-1.57-2.5-1.57-4.16c0-1.66,0.52-3.05,1.57-4.16c1.05-1.11,2.32-1.67,3.82-1.67
				c0.94,0,1.74,0.18,2.39,0.54c0.65,0.36,1.13,0.75,1.43,1.17l0.2,0.34h0.02v-1.82h1.8v11.23h-1.8v-1.8h-0.02l-0.2,0.31
				c-0.27,0.4-0.73,0.79-1.39,1.16c-0.66,0.37-1.47,0.55-2.42,0.55C177.9,40.92,176.63,40.36,175.58,39.25z M176.89,32.1
				c-0.73,0.78-1.09,1.77-1.09,2.99c0,1.21,0.36,2.21,1.09,2.99c0.73,0.78,1.63,1.17,2.73,1.17c1.09,0,2-0.39,2.73-1.17
				c0.73-0.78,1.09-1.77,1.09-2.99c0-1.21-0.36-2.21-1.09-2.99c-0.73-0.78-1.64-1.17-2.73-1.17
				C178.53,30.93,177.62,31.32,176.89,32.1z"/>
			<path d="M189.28,39.25c-1.05-1.11-1.57-2.5-1.57-4.16c0-1.66,0.52-3.05,1.57-4.16c1.05-1.11,2.32-1.67,3.82-1.67
				c0.94,0,1.74,0.18,2.4,0.54c0.66,0.36,1.13,0.74,1.41,1.14l0.2,0.34h0.02v-1.8h1.8v15.7h-1.8V38.9h-0.02l-0.2,0.31
				c-0.27,0.4-0.73,0.79-1.39,1.16c-0.66,0.37-1.47,0.55-2.42,0.55C191.6,40.92,190.32,40.36,189.28,39.25z M190.59,32.1
				c-0.73,0.78-1.09,1.77-1.09,2.99c0,1.21,0.36,2.21,1.09,2.99c0.73,0.78,1.63,1.17,2.73,1.17c1.09,0,2-0.39,2.73-1.17
				c0.73-0.78,1.09-1.77,1.09-2.99c0-1.21-0.36-2.21-1.09-2.99c-0.73-0.78-1.64-1.17-2.73-1.17
				C192.22,30.93,191.31,31.32,190.59,32.1z"/>
		</g>
		<g>
			<g>
				<path d="M59.29,13.18v-0.02c0-2.18,1.63-3.98,3.89-3.98c1.4,0,2.23,0.49,3,1.22l-0.59,0.64c-0.65-0.62-1.37-1.05-2.42-1.05
					c-1.7,0-2.98,1.38-2.98,3.15v0.02c0,1.78,1.29,3.18,2.98,3.18c1.05,0,1.75-0.41,2.48-1.11l0.57,0.56
					c-0.8,0.81-1.68,1.35-3.08,1.35C60.92,17.13,59.29,15.38,59.29,13.18z"/>
				<path d="M67.23,14.18v-0.02c0-1.64,1.15-2.96,2.73-2.96c1.68,0,2.65,1.34,2.65,3c0,0.11,0,0.18-0.01,0.27h-4.51
					c0.12,1.23,0.99,1.92,2,1.92c0.78,0,1.33-0.32,1.79-0.8l0.53,0.47c-0.57,0.64-1.26,1.07-2.34,1.07
					C68.5,17.13,67.23,15.93,67.23,14.18z M71.75,13.85c-0.09-1.03-0.68-1.93-1.81-1.93c-0.99,0-1.74,0.82-1.85,1.93H71.75z"/>
				<path d="M74.07,11.32h0.85v0.99c0.37-0.62,0.97-1.11,1.95-1.11c1.37,0,2.18,0.92,2.18,2.27V17H78.2v-3.32
					c0-1.05-0.57-1.71-1.57-1.71c-0.98,0-1.7,0.71-1.7,1.78V17h-0.85V11.32z"/>
				<path d="M81.13,15.49v-3.43h-0.79v-0.75h0.79V9.6h0.85v1.71h1.8v0.75h-1.8v3.32c0,0.69,0.38,0.95,0.96,0.95
					c0.29,0,0.53-0.06,0.82-0.2v0.73c-0.3,0.15-0.62,0.24-1.02,0.24C81.82,17.1,81.13,16.65,81.13,15.49z"/>
				<path d="M85.26,11.32h0.85v1.48c0.42-0.95,1.24-1.63,2.32-1.58v0.91h-0.07c-1.24,0-2.25,0.89-2.25,2.6V17h-0.85V11.32z"/>
				<path d="M89.35,14.19v-0.02c0-1.6,1.25-2.97,2.97-2.97c1.7,0,2.96,1.34,2.96,2.95v0.02c0,1.6-1.26,2.97-2.98,2.97
					C90.59,17.13,89.35,15.79,89.35,14.19z M94.4,14.19v-0.02c0-1.22-0.91-2.22-2.11-2.22c-1.23,0-2.08,1-2.08,2.2v0.02
					c0,1.22,0.9,2.21,2.1,2.21C93.54,16.37,94.4,15.38,94.4,14.19z"/>
				<path d="M100.21,9.31h0.88l2.8,4.2l2.8-4.2h0.88V17h-0.87v-6.23l-2.8,4.12h-0.04l-2.8-4.11V17h-0.85V9.31z"/>
				<path d="M109.24,14.18v-0.02c0-1.64,1.15-2.96,2.73-2.96c1.68,0,2.65,1.34,2.65,3c0,0.11,0,0.18-0.01,0.27h-4.51
					c0.12,1.23,0.99,1.92,2,1.92c0.78,0,1.33-0.32,1.79-0.8l0.53,0.47c-0.57,0.64-1.26,1.07-2.34,1.07
					C110.52,17.13,109.24,15.93,109.24,14.18z M113.76,13.85c-0.09-1.03-0.68-1.93-1.81-1.93c-0.99,0-1.74,0.82-1.85,1.93H113.76z
					 M112.65,8.87l0.88,0.41l-1.25,1.19h-0.66L112.65,8.87z"/>
				<path d="M115.76,14.18v-0.02c0-1.86,1.35-2.96,2.71-2.96c1.05,0,1.74,0.57,2.18,1.21V8.98h0.85V17h-0.85v-1.14
					c-0.46,0.68-1.13,1.26-2.18,1.26C117.11,17.12,115.76,16.04,115.76,14.18z M120.68,14.16v-0.02c0-1.31-1-2.19-2.05-2.19
					c-1.1,0-2,0.81-2,2.19v0.02c0,1.34,0.93,2.2,2,2.2C119.68,16.36,120.68,15.47,120.68,14.16z"/>
				<path d="M123.4,9.14h0.97v0.93h-0.97V9.14z M123.45,11.32h0.85V17h-0.85V11.32z"/>
				<path d="M125.9,14.19v-0.02c0-1.6,1.25-2.97,2.91-2.97c1.08,0,1.75,0.45,2.27,1.01l-0.56,0.59c-0.45-0.47-0.96-0.86-1.73-0.86
					c-1.15,0-2.03,0.98-2.03,2.2v0.02c0,1.23,0.9,2.21,2.09,2.21c0.73,0,1.29-0.36,1.74-0.85l0.54,0.51
					c-0.57,0.64-1.25,1.1-2.32,1.1C127.15,17.13,125.9,15.78,125.9,14.19z"/>
				<path d="M132.16,14.19v-0.02c0-1.6,1.25-2.97,2.97-2.97c1.7,0,2.96,1.34,2.96,2.95v0.02c0,1.6-1.26,2.97-2.98,2.97
					C133.4,17.13,132.16,15.79,132.16,14.19z M137.22,14.19v-0.02c0-1.22-0.91-2.22-2.11-2.22c-1.23,0-2.08,1-2.08,2.2v0.02
					c0,1.22,0.9,2.21,2.1,2.21C136.36,16.37,137.22,15.38,137.22,14.19z"/>
			</g>
		</g>
	</g>
	<g>
		<g>
			<linearGradient id="SVGID_1_" gradientUnits="userSpaceOnUse" x1="16.9389" y1="9.7675" x2="16.9389" y2="14.0051">
				<stop  offset="0" style="stop-color:#2896FC"/>
				<stop  offset="1" style="stop-color:#4FDDFB"/>
			</linearGradient>
			<circle class="st0" cx="16.94" cy="11.89" r="2.12"/>
			<linearGradient id="SVGID_2_" gradientUnits="userSpaceOnUse" x1="9.2783" y1="17.4286" x2="9.2783" y2="21.6663">
				<stop  offset="0" style="stop-color:#2896FC"/>
				<stop  offset="1" style="stop-color:#4FDDFB"/>
			</linearGradient>
			<circle class="st1" cx="9.28" cy="19.55" r="2.12"/>
			<linearGradient id="SVGID_3_" gradientUnits="userSpaceOnUse" x1="9.2786" y1="28.2627" x2="9.2786" y2="32.5004">
				<stop  offset="0" style="stop-color:#2896FC"/>
				<stop  offset="1" style="stop-color:#4FDDFB"/>
			</linearGradient>
			<circle class="st2" cx="9.28" cy="30.38" r="2.12"/>
			<linearGradient id="SVGID_4_" gradientUnits="userSpaceOnUse" x1="16.9398" y1="35.9234" x2="16.9398" y2="40.161">
				<stop  offset="0" style="stop-color:#2896FC"/>
				<stop  offset="1" style="stop-color:#4FDDFB"/>
			</linearGradient>
			<circle class="st3" cx="16.94" cy="38.04" r="2.12"/>
			<linearGradient id="SVGID_5_" gradientUnits="userSpaceOnUse" x1="27.7739" y1="35.923" x2="27.7739" y2="40.1606">
				<stop  offset="0" style="stop-color:#2896FC"/>
				<stop  offset="1" style="stop-color:#4FDDFB"/>
			</linearGradient>
			<circle class="st4" cx="27.77" cy="38.04" r="2.12"/>
			<linearGradient id="SVGID_6_" gradientUnits="userSpaceOnUse" x1="35.4346" y1="28.2618" x2="35.4346" y2="32.4995">
				<stop  offset="0" style="stop-color:#2896FC"/>
				<stop  offset="1" style="stop-color:#4FDDFB"/>
			</linearGradient>
			<circle class="st5" cx="35.43" cy="30.38" r="2.12"/>
			<linearGradient id="SVGID_7_" gradientUnits="userSpaceOnUse" x1="35.4342" y1="17.4277" x2="35.4342" y2="21.6653">
				<stop  offset="0" style="stop-color:#2896FC"/>
				<stop  offset="1" style="stop-color:#4FDDFB"/>
			</linearGradient>
			<circle class="st6" cx="35.43" cy="19.55" r="2.12"/>
			<linearGradient id="SVGID_8_" gradientUnits="userSpaceOnUse" x1="27.773" y1="9.7671" x2="27.773" y2="14.0047">
				<stop  offset="0" style="stop-color:#2896FC"/>
				<stop  offset="1" style="stop-color:#4FDDFB"/>
			</linearGradient>
			<circle class="st7" cx="27.77" cy="11.89" r="2.12"/>
			<linearGradient id="SVGID_9_" gradientUnits="userSpaceOnUse" x1="14.5657" y1="15.4808" x2="14.5657" y2="18.7882">
				<stop  offset="0" style="stop-color:#2896FC"/>
				<stop  offset="1" style="stop-color:#4FDDFB"/>
			</linearGradient>
			<circle class="st8" cx="14.57" cy="17.13" r="1.65"/>
			<linearGradient id="SVGID_10_" gradientUnits="userSpaceOnUse" x1="14.5269" y1="31.101" x2="14.5269" y2="34.4085">
				<stop  offset="0" style="stop-color:#2896FC"/>
				<stop  offset="1" style="stop-color:#4FDDFB"/>
			</linearGradient>
			<circle class="st9" cx="14.53" cy="32.75" r="1.65"/>
			<linearGradient id="SVGID_11_" gradientUnits="userSpaceOnUse" x1="22.3631" y1="34.3555" x2="22.3631" y2="37.6629">
				<stop  offset="0" style="stop-color:#2896FC"/>
				<stop  offset="1" style="stop-color:#4FDDFB"/>
			</linearGradient>
			<circle class="st10" cx="22.36" cy="36.01" r="1.65"/>
			<linearGradient id="SVGID_12_" gradientUnits="userSpaceOnUse" x1="30.1471" y1="31.1399" x2="30.1471" y2="34.4473">
				<stop  offset="0" style="stop-color:#2896FC"/>
				<stop  offset="1" style="stop-color:#4FDDFB"/>
			</linearGradient>
			<circle class="st11" cx="30.15" cy="32.79" r="1.65"/>
			<linearGradient id="SVGID_13_" gradientUnits="userSpaceOnUse" x1="30.1859" y1="15.5196" x2="30.1859" y2="18.827">
				<stop  offset="0" style="stop-color:#2896FC"/>
				<stop  offset="1" style="stop-color:#4FDDFB"/>
			</linearGradient>
			<circle class="st12" cx="30.19" cy="17.17" r="1.65"/>
			<linearGradient id="SVGID_14_" gradientUnits="userSpaceOnUse" x1="22.3631" y1="12.2652" x2="22.3631" y2="15.5726">
				<stop  offset="0" style="stop-color:#2896FC"/>
				<stop  offset="1" style="stop-color:#4FDDFB"/>
			</linearGradient>
			<circle class="st13" cx="22.36" cy="13.92" r="1.65"/>
			<linearGradient id="SVGID_15_" gradientUnits="userSpaceOnUse" x1="19.245" y1="16.2364" x2="19.245" y2="18.6702">
				<stop  offset="0" style="stop-color:#2896FC"/>
				<stop  offset="1" style="stop-color:#4FDDFB"/>
			</linearGradient>
			<circle class="st14" cx="19.25" cy="17.45" r="1.22"/>
			<linearGradient id="SVGID_16_" gradientUnits="userSpaceOnUse" x1="14.8454" y1="20.6363" x2="14.8454" y2="23.0701">
				<stop  offset="0" style="stop-color:#2896FC"/>
				<stop  offset="1" style="stop-color:#4FDDFB"/>
			</linearGradient>
			<circle class="st15" cx="14.85" cy="21.85" r="1.22"/>
			<linearGradient id="SVGID_17_" gradientUnits="userSpaceOnUse" x1="14.8456" y1="26.8585" x2="14.8456" y2="29.2923">
				<stop  offset="0" style="stop-color:#2896FC"/>
				<stop  offset="1" style="stop-color:#4FDDFB"/>
			</linearGradient>
			<circle class="st16" cx="14.85" cy="28.08" r="1.22"/>
			<linearGradient id="SVGID_18_" gradientUnits="userSpaceOnUse" x1="19.2456" y1="31.2581" x2="19.2456" y2="33.6919">
				<stop  offset="0" style="stop-color:#2896FC"/>
				<stop  offset="1" style="stop-color:#4FDDFB"/>
			</linearGradient>
			<circle class="st17" cx="19.25" cy="32.48" r="1.22"/>
			<linearGradient id="SVGID_19_" gradientUnits="userSpaceOnUse" x1="25.4678" y1="31.2579" x2="25.4678" y2="33.6917">
				<stop  offset="0" style="stop-color:#2896FC"/>
				<stop  offset="1" style="stop-color:#4FDDFB"/>
			</linearGradient>
			<circle class="st18" cx="25.47" cy="32.47" r="1.22"/>
			<linearGradient id="SVGID_20_" gradientUnits="userSpaceOnUse" x1="29.8674" y1="26.858" x2="29.8674" y2="29.2918">
				<stop  offset="0" style="stop-color:#2896FC"/>
				<stop  offset="1" style="stop-color:#4FDDFB"/>
			</linearGradient>
			<circle class="st19" cx="29.87" cy="28.07" r="1.22"/>
			<linearGradient id="SVGID_21_" gradientUnits="userSpaceOnUse" x1="29.8672" y1="20.6358" x2="29.8672" y2="23.0695">
				<stop  offset="0" style="stop-color:#2896FC"/>
				<stop  offset="1" style="stop-color:#4FDDFB"/>
			</linearGradient>
			<circle class="st20" cx="29.87" cy="21.85" r="1.22"/>
			<linearGradient id="SVGID_22_" gradientUnits="userSpaceOnUse" x1="25.4672" y1="16.2362" x2="25.4672" y2="18.6699">
				<stop  offset="0" style="stop-color:#2896FC"/>
				<stop  offset="1" style="stop-color:#4FDDFB"/>
			</linearGradient>
			<circle class="st21" cx="25.47" cy="17.45" r="1.22"/>
			<linearGradient id="SVGID_23_" gradientUnits="userSpaceOnUse" x1="33.4082" y1="23.3103" x2="33.4082" y2="26.6178">
				<stop  offset="0" style="stop-color:#2896FC"/>
				<stop  offset="1" style="stop-color:#4FDDFB"/>
			</linearGradient>
			<circle class="st22" cx="33.41" cy="24.96" r="1.65"/>
			<linearGradient id="SVGID_24_" gradientUnits="userSpaceOnUse" x1="11.3179" y1="23.3103" x2="11.3179" y2="26.6178">
				<stop  offset="0" style="stop-color:#2896FC"/>
				<stop  offset="1" style="stop-color:#4FDDFB"/>
			</linearGradient>
			<circle class="st23" cx="11.32" cy="24.96" r="1.65"/>
		</g>
		<g>
			<linearGradient id="SVGID_25_" gradientUnits="userSpaceOnUse" x1="22.3204" y1="3.7503" x2="22.3204" y2="9.4169">
				<stop  offset="0" style="stop-color:#2896FC"/>
				<stop  offset="1" style="stop-color:#4FDDFB"/>
			</linearGradient>
			<circle class="st24" cx="22.32" cy="6.58" r="2.83"/>
			<linearGradient id="SVGID_26_" gradientUnits="userSpaceOnUse" x1="22.3204" y1="40.5831" x2="22.3204" y2="46.2497">
				<stop  offset="0" style="stop-color:#2896FC"/>
				<stop  offset="1" style="stop-color:#4FDDFB"/>
			</linearGradient>
			<circle class="st25" cx="22.32" cy="43.42" r="2.83"/>
			<linearGradient id="SVGID_27_" gradientUnits="userSpaceOnUse" x1="3.904" y1="22.1667" x2="3.904" y2="27.8333">
				<stop  offset="0" style="stop-color:#2896FC"/>
				<stop  offset="1" style="stop-color:#4FDDFB"/>
			</linearGradient>
			<circle class="st26" cx="3.9" cy="25" r="2.83"/>
			<linearGradient id="SVGID_28_" gradientUnits="userSpaceOnUse" x1="40.7369" y1="22.1667" x2="40.7369" y2="27.8333">
				<stop  offset="0" style="stop-color:#2896FC"/>
				<stop  offset="1" style="stop-color:#4FDDFB"/>
			</linearGradient>
			<circle class="st27" cx="40.74" cy="25" r="2.83"/>
			<linearGradient id="SVGID_29_" gradientUnits="userSpaceOnUse" x1="9.2981" y1="9.1443" x2="9.2981" y2="14.8109">
				<stop  offset="0" style="stop-color:#2896FC"/>
				<stop  offset="1" style="stop-color:#4FDDFB"/>
			</linearGradient>
			<circle class="st28" cx="9.3" cy="11.98" r="2.83"/>
			<linearGradient id="SVGID_30_" gradientUnits="userSpaceOnUse" x1="35.3428" y1="35.1891" x2="35.3428" y2="40.8557">
				<stop  offset="0" style="stop-color:#2896FC"/>
				<stop  offset="1" style="stop-color:#4FDDFB"/>
			</linearGradient>
			<circle class="st29" cx="35.34" cy="38.02" r="2.83"/>
			<linearGradient id="SVGID_31_" gradientUnits="userSpaceOnUse" x1="9.2981" y1="35.1891" x2="9.2981" y2="40.8557">
				<stop  offset="0" style="stop-color:#2896FC"/>
				<stop  offset="1" style="stop-color:#4FDDFB"/>
			</linearGradient>
			<circle class="st30" cx="9.3" cy="38.02" r="2.83"/>
			<linearGradient id="SVGID_32_" gradientUnits="userSpaceOnUse" x1="35.3428" y1="9.1443" x2="35.3428" y2="14.8109">
				<stop  offset="0" style="stop-color:#2896FC"/>
				<stop  offset="1" style="stop-color:#4FDDFB"/>
			</linearGradient>
			<circle class="st31" cx="35.34" cy="11.98" r="2.83"/>
		</g>
	</g>
</g>
</svg>
